<svg xmlns="http://www.w3.org/2000/svg" width="18.828" height="18.917" viewBox="0 0 18.828 18.917">
  <g id="Grupo_2692" data-name="Grupo 2692" transform="translate(-173.893 -80.62)">
    <path id="Caminho_3325" data-name="Caminho 3325" d="M173.893,99.537l1.332-4.859a9.373,9.373,0,1,1,8.122,4.7h0a9.332,9.332,0,0,1-4.478-1.142Zm5.2-3,.282.169a7.76,7.76,0,0,0,3.966,1.087h0a7.789,7.789,0,1,0-6.6-3.65l.184.295-.786,2.873Z" transform="translate(0 0)" fill="#fff"/>
    <path id="Caminho_3326" data-name="Caminho 3326" d="M184.909,88.828c-.058-.1-.215-.157-.448-.273s-1.387-.684-1.6-.761-.371-.117-.525.117-.608.761-.743.918-.273.175-.506.058a6.343,6.343,0,0,1-1.885-1.163,7.116,7.116,0,0,1-1.3-1.621c-.135-.236-.012-.362.1-.479s.233-.273.35-.411a1.635,1.635,0,0,0,.236-.39.438.438,0,0,0-.021-.411c-.058-.117-.525-1.268-.721-1.737s-.384-.4-.528-.4-.292-.009-.448-.009a.858.858,0,0,0-.626.295,2.634,2.634,0,0,0-.82,1.952,4.563,4.563,0,0,0,.958,2.425,10.442,10.442,0,0,0,4,3.536,13.793,13.793,0,0,0,1.335.494,3.189,3.189,0,0,0,1.473.092,2.409,2.409,0,0,0,1.581-1.114A1.955,1.955,0,0,0,184.909,88.828Z" transform="translate(3.162 3.4)" fill="#fff" fill-rule="evenodd"/>
  </g>
</svg>
